<svg xmlns="http://www.w3.org/2000/svg" viewBox="0 0 938.33 314.73"><defs><style>.cls-1{fill:#d8505b;}.cls-2{fill:#ea5657;}.cls-3{fill:#ed6f71;}.cls-4{fill:none;stroke-width:9px;}.cls-4,.cls-6{stroke:#fff;stroke-miterlimit:10;}.cls-5{fill:#fff;}.cls-6{fill:#b8191a;stroke-width:6.95px;}.cls-7{font-size:130px;fill:#1d1d1b;font-family:Garamond-Bold, Garamond;font-weight:700;}.cls-8{letter-spacing:-0.04em;}.cls-9{letter-spacing:0.1em;}.cls-10{letter-spacing:-0.02em;}</style></defs><title>Mit Text</title><g id="Ebene_2" data-name="Ebene 2"><g id="Ebene_1-2" data-name="Ebene 1"><g id="Block"><rect class="cls-1" x="180.47" y="86.79" width="75.59" height="226.77" transform="translate(154.29 -88.99) rotate(35)"/><rect class="cls-2" x="119.11" y="43.82" width="75.59" height="226.77" transform="translate(118.54 -61.56) rotate(35)"/><rect class="cls-3" x="58.2" y="1.17" width="75.59" height="226.77" transform="translate(83.07 -34.34) rotate(35)"/></g><path id="Glas" class="cls-4" d="M77,99.42v27.37C77.9,242,159.88,247.86,159.9,247.86h0s82-5.91,82.89-121.07V99.42"/><rect class="cls-5" x="73" y="94.6" width="173.79" height="8.5" rx="2.83"/><g id="Kreuz"><polygon class="cls-6" points="149.2 176.94 149.2 198.33 170.6 198.33 170.6 176.94 191.99 176.94 191.99 155.54 170.6 155.54 170.6 134.15 149.2 134.15 149.2 155.54 127.81 155.54 127.81 176.94 149.2 176.94"/></g><text class="cls-7" transform="translate(351.66 187.72)">D<tspan class="cls-8" x="101.56" y="0">r</tspan><tspan class="cls-9" x="140.66" y="0">.</tspan><tspan x="187.5" y="0">Boo</tspan><tspan class="cls-10" x="411" y="0">z</tspan><tspan x="469.71" y="0">e</tspan></text><polyline class="cls-5" points="155.65 295.75 155.65 251.11 164.15 251.11 164.15 301.7"/></g></g></svg>