<?xml version="1.0" encoding="utf-8"?>
<!-- Generator: Adobe Illustrator 23.0.6, SVG Export Plug-In . SVG Version: 6.00 Build 0)  -->
<svg version="1.1" id="Ebene_1" xmlns="http://www.w3.org/2000/svg" x="0px" y="0px"
     viewBox="0 0 800 800" style="enable-background:new 0 0 800 800;" xml:space="preserve">
<style type="text/css">
	.st0{fill:#FFFFFF;stroke:#1D1D1B;stroke-width:10;stroke-miterlimit:10;}
	.st1{stroke:#FFFFFF;stroke-width:10;stroke-miterlimit:10;}
</style>
    <circle class="st0" cx="400" cy="400" r="360.5"/>
    <path class="st1" d="M592.4,127.1c-2.5-6.9-8.7-11.5-16.1-11.5H426.6c-7.5,0-13.6,4.6-16.2,11.5c-11.6,31.2-38.7,108.6-38.7,155.7v6
	c0,23.9,0,56.6,35.4,92.9c8.1,8.4,17.8,16.1,28.1,24.3c23.8,19.1,48.4,38.8,48.4,62.6V612c0,1.4-1.1,2.5-2.5,2.5h-71.2
	c-9.9,0-17.8,7.9-17.8,17.5c0,9.6,8,17.5,17.8,17.5H593c9.9,0,17.8-7.9,17.8-17.5c0-9.6-8-17.5-17.8-17.5h-71.2
	c-1.4,0-2.5-1.1-2.5-2.5V468.6c0-23.8,24.6-43.5,48.4-62.6c10.2-8.2,19.8-16,28.1-24.3c35.4-36.3,35.4-69,35.4-92.9v-6
	C631.2,235.9,604.1,158.2,592.4,127.1z M590.6,254.4c-0.2,0.4-0.9,0.9-2,0.9H414.3c-1,0-1.6-0.6-2-0.9c-0.2-0.4-0.7-1-0.5-2.1
	c6.4-32.6,18.5-74.3,26.9-100c0.4-1,1.4-1.7,2.4-1.7h120.7c1.1,0,2.1,0.7,2.4,1.7c8.4,25.8,20.5,67.5,26.9,100
	C591.4,253.3,590.9,254,590.6,254.4L590.6,254.4z"/>
    <path class="st1" d="M505.5,342.8h-16v-6c8.9-9,16-22.9,16-38c0-35.3-28.7-64-64-64c-16.3,0-31.1,6.1-42.4,16.1
	c-12.4-10.1-28.2-16.1-45.4-16.1c-15.8,0-30.4,5.1-42.3,13.7c-9.9-8.5-22.9-13.7-37-13.7c-17.1,0-32.4,7.6-42.8,19.5
	c-11.7-12-28-19.5-46.1-19.5c-35.3,0-64,28.7-64,64c0,16.2,6.1,31,16,42.3v54.7c0,26.5,21.5,48,48,48v174.5
	c0,35.3,28.8,64.5,64.2,64.5h175.8c35.3,0,64.1-29.2,64.1-64.5v-43.5h16c50,0,64-32.7,64-68v-96
	C569.5,375.5,552.5,342.8,505.5,342.8z M441.5,394.8h-208v-53.7c0.3-0.4,0.7-0.8,1-1.2c1.2-1.5,2.4-3,3.5-4.6c1.5,1.2,3,2.4,4.6,3.4
	c9.1,6.1,20,9.7,31.7,9.7c6.4,0,12.6-1.1,18.3-3c12.8,20.2,35.3,33.7,61,33.7c22,0,41.7-9.9,54.9-25.4c5.7-6.7,10.2-14.4,13.1-22.9
	h19.9V394.8z M185.5,330.9v75c-9,0-16-7.2-16-16v-63.3c-8-4.5-13.4-12.1-15.3-21c-0.5-2.1-0.7-4.4-0.7-6.7c0-17.6,14.4-32,32-32
	c11.8,0,23.3,7.7,30.1,15.4c6.8,7.7,26.7,7.7,33.9,0c6.8-7.3,14.3-15.4,24.8-15.4c6,0,11.6,2.2,15.9,5.8c1.9,1.6,3.6,3.5,4.9,5.6
	c1.1,1.8,2,4.2,3.1,5.8c2.7,3.4,6.5,5.5,11.2,5.5c4.4,0,8.3-1.9,11-5c0.6-0.7,1.2-1.5,1.7-2.3c2-2.5,4.2-4.8,6.7-6.8
	c6.8-5.4,15.5-8.6,24.8-8.6c10.6,0,20.2,4.1,27.4,10.9c1.7,1.6,6.7,4.5,13.2,5.1c4.5,0.4,6.1,0.3,8.2,0c10.3-1.3,14.4-4.7,16.4-6.6
	c5.8-5.8,13.8-9.4,22.6-9.4c17.6,0,32,14.4,32,32c0.2,3.1-0.3,6.2-1.2,9.1c-2.5-5.5-8.1-9.2-14.6-9.2h-55c0,0-8.7-0.7-8.7,8.2
	c0,8.9-2.9,17.1-7.8,23.7c-7.3,9.9-19.1,16.4-32.4,16.4c-14.9,0-27.9-8.1-34.8-20.2c-1.6-2.7-2.8-5.6-3.7-8.6
	c-0.1-0.6-0.3-1.1-0.4-1.6c-2-5.9-7.5-10.2-14.1-10.2c-3.9,0-7.5,1.5-10.2,4l-0.1,0.1c-2.4,2.1-5.3,3.7-8.4,4.7
	c-2.4,0.8-5,1.2-7.7,1.2c-7.5,0-14.7-4-18.8-8.6c-10-11.4-23.7-6.8-29.7-5.5s-12.2,11.7-12.2,11.7c-1.1,2.1-2.4,4-3.9,5.8
	C203.7,326.6,194.5,330.9,185.5,330.9L185.5,330.9z M521.5,506.8c0,17.7-6.3,24-24,24h-8v-144h8c17.7,0,24,6.3,24,24V506.8z"/>
</svg>
