<?xml version="1.0" encoding="utf-8"?>
<!-- Generator: Adobe Illustrator 23.0.6, SVG Export Plug-In . SVG Version: 6.00 Build 0)  -->
<svg version="1.1" id="Ebene_1" xmlns="http://www.w3.org/2000/svg" x="0px" y="0px"
     viewBox="0 0 800 800" style="enable-background:new 0 0 800 800;" xml:space="preserve">
<style type="text/css">
	.st0{fill:#FFFFFF;stroke:#000000;stroke-width:10;stroke-miterlimit:10;}
	.st1{stroke:#FFFFFF;stroke-width:14;stroke-miterlimit:10;}
</style>
    <circle class="st0" cx="400.1" cy="400.2" r="360.5"/>
    <title>whiskey</title>
    <path d="M629.6,224.3c-5.5-7.3-14.2-11.5-23.3-11.5H193.7c-16-0.1-29,12.7-29.2,28.7c0,2.8,0.4,5.5,1.1,8.2l87,314.2
	c3.9,13.5,16.4,23.1,30.5,23.2H517c14.2-0.1,26.6-9.6,30.5-23.2l86.8-314C636.9,241,635.1,231.6,629.6,224.3z M538.8,403.2H261.2
	l-38.4-139h354.4L538.8,403.2z"/>
    <path class="st1" d="M454.2,414.4l-48.7,17.3c-7.6,2.7-16-1.2-18.7-8.9L369.5,374c-2.7-7.6,1.2-16,8.9-18.7l48.7-17.3
	c7.6-2.7,16,1.2,18.7,8.9l17.3,48.7C465.8,403.3,461.8,411.6,454.2,414.4L454.2,414.4z"/>
    <path class="st1" d="M399.6,452.6L350.9,470c-7.6,2.7-16-1.3-18.7-8.9l-17.3-48.7c-2.7-7.6,1.2-16,8.9-18.7l0,0l48.7-17.3
	c7.6-2.7,16,1.2,18.7,8.9l0,0l17.3,48.7C411.2,441.6,407.2,449.9,399.6,452.6z"/>
    <path class="st1" d="M480.1,466.4l-48.7,17.3c-7.6,2.7-16-1.2-18.7-8.9l0,0l-17.3-48.7c-2.7-7.6,1.3-16,8.9-18.7l48.7-17.3
	c7.6-2.7,16,1.3,18.7,8.9l17.3,48.7C491.7,455.4,487.7,463.7,480.1,466.4z"/>
</svg>
