<?xml version="1.0" encoding="utf-8"?>
<!-- Generator: Adobe Illustrator 23.0.6, SVG Export Plug-In . SVG Version: 6.00 Build 0)  -->
<svg version="1.1" id="Ebene_1" xmlns="http://www.w3.org/2000/svg" x="0px" y="0px"
     viewBox="0 0 800 800" style="enable-background:new 0 0 800 800;" xml:space="preserve">
<style type="text/css">
	.st0{fill:#FFFFFF;stroke:#000000;stroke-width:10;stroke-miterlimit:10;}
</style>
    <circle class="st0" cx="400" cy="400.5" r="360.5"/>
    <path d="M496.1,130.1c-2.6-7.2-9.2-12.1-17-12.1H320.9c-7.9,0-14.4,4.9-17.1,12.1C291.5,163.1,263,244.9,263,294.6v6.3
	c0,25.3,0,59.8,37.4,98.2c8.6,8.8,18.8,17,29.6,25.7c25.2,20.2,51.1,41,51.1,66.2v151.5c0,1.4-1.2,2.6-2.6,2.6h-75.2
	c-10.4,0-18.8,8.3-18.8,18.4s8.4,18.4,18.8,18.4h193.4c10.4,0,18.8-8.3,18.8-18.4s-8.4-18.4-18.8-18.4h-75.2c-1.4,0-2.6-1.2-2.6-2.6
	V490.9c0-25.2,26-46,51.1-66.2c10.8-8.7,21-16.9,29.6-25.7c37.4-38.3,37.4-72.9,37.4-98.2v-6.3C537,245.2,508.5,163.1,496.1,130.1z
	 M494.2,264.7c-0.3,0.4-0.9,0.9-2.1,0.9H307.9c-1.1,0-1.7-0.7-2.1-0.9c-0.3-0.4-0.8-1.1-0.5-2.2c6.7-34.4,19.5-78.5,28.5-105.7
	c0.4-1.1,1.4-1.8,2.5-1.8h127.6c1.2,0,2.2,0.8,2.5,1.8c8.8,27.3,21.6,71.3,28.5,105.7C495,263.5,494.5,264.3,494.2,264.7
	L494.2,264.7z"/>
</svg>
