<svg xmlns="http://www.w3.org/2000/svg" viewBox="0 0 385.86 306.67">
    <defs>
        <style>.a{stroke:#fff;stroke-miterlimit:10;stroke-width:14px;}</style>
    </defs>
    <title>whiskey</title>
    <path d="M447.16,120.91a23.72,23.72,0,0,0-19.08-9.36H90a23.71,23.71,0,0,0-23,30.24L138.27,399.2a26.38,26.38,0,0,0,25,19H354.83a26.35,26.35,0,0,0,25-19l71.25-257.4A23.76,23.76,0,0,0,447.16,120.91ZM372.73,267.45H145.39l-31.53-113.9H404.25Z"
          transform="translate(-66.12 -111.55)"/>
    <path class="a"
          d="M303.4,276.64l-39.93,14.18a12,12,0,0,1-15.32-7.29L234,243.6a12,12,0,0,1,7.29-15.32l39.93-14.18a12,12,0,0,1,15.32,7.29l14.18,39.93A12,12,0,0,1,303.4,276.64Z"
          transform="translate(-66.12 -111.55)"/>
    <path class="a"
          d="M258.71,308l-39.92,14.18a12.05,12.05,0,0,1-15.33-7.3L189.28,275a12,12,0,0,1,7.3-15.33l39.92-14.18a12,12,0,0,1,15.33,7.3L266,292.7A12,12,0,0,1,258.71,308Z"
          transform="translate(-66.12 -111.55)"/>
    <path class="a"
          d="M324.65,319.33l-39.92,14.18a12,12,0,0,1-15.33-7.3l-14.18-39.92A12,12,0,0,1,262.51,271l39.93-14.18a12.05,12.05,0,0,1,15.33,7.3L332,304A12.05,12.05,0,0,1,324.65,319.33Z"
          transform="translate(-66.12 -111.55)"/>
</svg>
